<svg width="26" height="30" viewBox="0 0 26 30" fill="none" xmlns="http://www.w3.org/2000/svg">
<g filter="url(#filter0_d_909_71)">
<path d="M5 19V5C5 4.46957 5.21071 3.96086 5.58579 3.58579C5.96086 3.21071 6.46957 3 7 3H20.4C20.5591 3 20.7117 3.06321 20.8243 3.17574C20.9368 3.28826 21 3.44087 21 3.6V16.714M7 17H21M7 21H21" stroke="white" stroke-width="1.5" stroke-linecap="round"/>
<path d="M7 21C6.46957 21 5.96086 20.7893 5.58579 20.4142C5.21071 20.0391 5 19.5304 5 19C5 18.4696 5.21071 17.9609 5.58579 17.5858C5.96086 17.2107 6.46957 17 7 17" stroke="white" stroke-width="1.5" stroke-linecap="round" stroke-linejoin="round"/>
<path d="M10 7H16" stroke="white" stroke-width="1.5" stroke-linecap="round"/>
</g>
<defs>
<filter id="filter0_d_909_71" x="-3" y="0" width="32" height="32" filterUnits="userSpaceOnUse" color-interpolation-filters="sRGB">
<feFlood flood-opacity="0" result="BackgroundImageFix"/>
<feColorMatrix in="SourceAlpha" type="matrix" values="0 0 0 0 0 0 0 0 0 0 0 0 0 0 0 0 0 0 127 0" result="hardAlpha"/>
<feOffset dy="4"/>
<feGaussianBlur stdDeviation="2"/>
<feComposite in2="hardAlpha" operator="out"/>
<feColorMatrix type="matrix" values="0 0 0 0 0 0 0 0 0 0 0 0 0 0 0 0 0 0 0.25 0"/>
<feBlend mode="normal" in2="BackgroundImageFix" result="effect1_dropShadow_909_71"/>
<feBlend mode="normal" in="SourceGraphic" in2="effect1_dropShadow_909_71" result="shape"/>
</filter>
</defs>
</svg>
